<svg clip-rule="evenodd" fill-rule="evenodd" stroke-linejoin="round" stroke-miterlimit="2" viewBox="0 0 20 20" xmlns="http://www.w3.org/2000/svg"><path d="m17.7 3.6v2h-3.2v-3.3h1.9c.8 0 1.3.6 1.3 1.3z" fill="#f9df6d" fill-rule="nonzero"/><path d="m2.3 10.4h3.2v3.5h-3.2z" fill="#bc70c4"/><path d="m10.4 10.4h7.3v3.4h-7.3z" fill="#a0c35a"/><path d="m16.4 1.4h-12.9c-1.2 0-2.2 1-2.2 2.2v12.9c0 1.2 1 2.1 2.2 2.1h12.9c1.2 0 2.1-1 2.1-2.1v-13c.1-1.1-.9-2.1-2.1-2.1zm-6 .9h3.2v3.2h-3.2zm-8.1 1.2c0-.7.6-1.3 1.3-1.3h6v3.2h-7.3zm0 2.8h11.4v3.2h-11.4zm7.3 4.1v3.2h-3.3v-3.2zm-4.1 7.3h-2c-.7 0-1.3-.6-1.3-1.3v-1.9h3.2v3.2zm0-4h-3.2v-3.2h3.2zm12.2 2.7c0 .7-.6 1.3-1.3 1.3h-10.1v-3.2h11.4zm0-2.7h-7.3v-3.2h7.3zm0-4.1h-3.2v-3.3h3.2zm0-4.1h-3.2v-3.2h1.9c.7 0 1.3.6 1.3 1.3z" fill-rule="nonzero"/><g fill="#fff"><path d="m5.5 14.5v3.2h-2c-.7 0-1.3-.6-1.3-1.3v-1.9z" fill-rule="nonzero"/><path d="m6.3 10.4h3.2v3.2h-3.2z"/><path d="m14.5 6.3h3.2v3.2h-3.2z"/><path d="m10.4 2.3h3.2v3.2h-3.2z"/></g><path d="m17.7 14.5v1.9c0 .7-.6 1.3-1.3 1.3h-10.1v-3.2z" fill="#f9df6d" fill-rule="nonzero"/><path d="m2.3 6.3h11.4v3.2h-11.4z" fill="#b0c4ef"/><path d="m9.6 2.2v3.3h-7.3v-2c0-.7.6-1.3 1.3-1.3z" fill="#bc70c4" fill-rule="nonzero"/></svg>